Coordinates
version=1
nRows=29
nColumns=22
inDegrees=yes

Units are S.I. units (second, meters, Newtons, ...)
If the header above contains a line with 'inDegrees', this indicates whether rotational values are in degrees (yes) or radians (no).

endheader
time	pelvis_tilt	pelvis_list	pelvis_rotation	pelvis_tx	pelvis_ty	pelvis_tz	hip_flexion_r	hip_adduction_r	hip_rotation_r	knee_angle_r	ankle_angle_r	subtalar_angle_r	hip_flexion_l	hip_adduction_l	hip_rotation_l	knee_angle_l	ankle_angle_l	subtalar_angle_l	lumbar_extension	lumbar_bending	lumbar_rotation
      0.01000000	    -12.37326379	      4.03298514	    -34.50008295	     -0.98733669	      0.88184387	     -0.39039578	     12.57081933	      2.40613845	      2.69815867	     -1.93746808	      7.10282633	     -1.50292356	     10.80834290	     -3.83895916	     -3.60886626	     -5.28552228	     12.03283423	      1.44356368	      5.85592159	      1.79480851	     12.98954622
      0.02000000	    -12.37115549	      4.02952207	    -34.49841675	     -0.98728631	      0.88184047	     -0.39039741	     12.56597261	      2.40624537	      2.69841505	     -1.94185467	      7.10344578	     -1.50321105	     10.80167508	     -3.83857277	     -3.60956852	     -5.28733249	     12.03316765	      1.44356281	      5.86913577	      1.79349659	     12.99231497
      0.03000000	    -12.37052113	      4.02640267	    -34.50373092	     -0.98722081	      0.88183140	     -0.39037988	     12.56184130	      2.40918837	      2.68844646	     -1.94613352	      7.11662702	     -1.50617345	     10.78095051	     -3.83902385	     -3.62017315	     -5.26334270	     12.04267974	      1.44380843	      5.88886310	      1.79181615	     13.01986944
      0.04000000	    -12.36735410	      4.02124161	    -34.50084426	     -0.98717963	      0.88183156	     -0.39039226	     12.55731691	      2.41016237	      2.69072514	     -1.95260571	      7.11673505	     -1.50647153	     10.77391908	     -3.83876044	     -3.62046116	     -5.26602054	     12.04244847	      1.44384929	      5.90133419	      1.78952521	     13.02199250
      0.05000000	    -12.35858142	      4.01196483	    -34.51188950	     -0.98714451	      0.88184148	     -0.39038376	     12.55880346	      2.41557896	      2.69078574	     -1.98534295	      7.13668161	     -1.51334663	     10.74112953	     -3.84166971	     -3.62763498	     -5.23684137	     12.05115007	      1.44484126	      5.90622247	      1.78766406	     13.05432690
      0.06000000	    -12.35490281	      4.00650196	    -34.50844841	     -0.98711181	      0.88184619	     -0.39040350	     12.55439848	      2.41695210	      2.69331608	     -1.99148516	      7.13698981	     -1.51378448	     10.73523989	     -3.84128582	     -3.62788567	     -5.24038700	     12.05026496	      1.44485208	      5.91800337	      1.78431220	     13.05511140
      0.07000000	    -12.35108794	      4.00038612	    -34.50469003	     -0.98708192	      0.88185092	     -0.39042676	     12.55073916	      2.41840618	      2.69591635	     -1.99891710	      7.13755556	     -1.51434816	     10.72907947	     -3.84121912	     -3.62790703	     -5.24299235	     12.05007471	      1.44486230	      5.92957448	      1.78041000	     13.05629774
      0.08000000	    -12.34691057	      3.99409867	    -34.50208900	     -0.98705338	      0.88185725	     -0.39044993	     12.54748687	      2.41993379	      2.69871791	     -2.00811229	      7.13847774	     -1.51509289	     10.72272306	     -3.84156892	     -3.62728102	     -5.24507637	     12.05043640	      1.44488538	      5.94088570	      1.77602595	     13.05724798
      0.09000000	    -12.33261935	      3.98482198	    -34.51374728	     -0.98706029	      0.88187633	     -0.39047289	     12.56249683	      2.42246309	      2.71116230	     -2.06969360	      7.16245316	     -1.52584093	     10.69695137	     -3.84131279	     -3.61897928	     -5.23073035	     12.06106950	      1.44538810	      5.93324006	      1.76922926	     13.06412719
      0.10000000	    -12.32877448	      3.97930459	    -34.51264576	     -0.98702779	      0.88188248	     -0.39049540	     12.55832823	      2.42403462	      2.71207484	     -2.07522571	      7.16392732	     -1.52658355	     10.69191415	     -3.84087698	     -3.61886707	     -5.23455662	     12.06033601	      1.44529738	      5.94609618	      1.76525230	     13.06522816
      0.11000000	    -12.32453265	      3.97361475	    -34.51289575	     -0.98699475	      0.88188926	     -0.39051688	     12.55481915	      2.42468644	      2.71369123	     -2.08313109	      7.16582022	     -1.52757884	     10.68659323	     -3.84126448	     -3.61785233	     -5.23878749	     12.06027491	      1.44518160	      5.95776793	      1.76084020	     13.06571374
      0.12000000	    -12.31995639	      3.96793530	    -34.51353762	     -0.98695622	      0.88189655	     -0.39053702	     12.55138674	      2.42587992	      2.71585035	     -2.09232894	      7.16754842	     -1.52851454	     10.68077267	     -3.84056524	     -3.61599411	     -5.24411575	     12.06076115	      1.44506103	      5.96905775	      1.75693486	     13.06576670
      0.13000000	    -12.30246657	      3.95920471	    -34.52143706	     -0.98695745	      0.88191933	     -0.39057264	     12.55904391	      2.42374186	      2.72409038	     -2.14405406	      7.19345507	     -1.53791087	     10.66840814	     -3.83728813	     -3.60299650	     -5.26067886	     12.07500999	      1.44322991	      5.95691859	      1.74786931	     13.06872696
      0.14000000	    -12.29916309	      3.95358910	    -34.52025482	     -0.98690312	      0.88192701	     -0.39059562	     12.55395189	      2.42384273	      2.72431742	     -2.14977901	      7.19497616	     -1.53858271	     10.66315330	     -3.83631335	     -3.60286389	     -5.26551214	     12.07531406	      1.44292585	      5.97031953	      1.74541188	     13.06930520
      0.15000000	    -12.29527303	      3.94789925	    -34.52042978	     -0.98685252	      0.88193555	     -0.39061599	     12.54883138	      2.42373873	      2.72452730	     -2.15614612	      7.19673926	     -1.53923864	     10.65784615	     -3.83606855	     -3.60130341	     -5.27201838	     12.07622943	      1.44255133	      5.98257390	      1.74201528	     13.06941465
      0.16000000	    -12.27835468	      3.93852479	    -34.51998268	     -0.98682649	      0.88195806	     -0.39065126	     12.54158606	      2.41985344	      2.71628132	     -2.18225081	      7.22360117	     -1.54593471	     10.65193158	     -3.83207283	     -3.58698304	     -5.30230466	     12.09718478	      1.43768592	      5.97346746	      1.73106351	     13.07123711
      0.17000000	    -12.27547386	      3.93241606	    -34.51728773	     -0.98677296	      0.88196749	     -0.39068072	     12.53654570	      2.41953213	      2.71687708	     -2.18780281	      7.22419522	     -1.54634463	     10.64684814	     -3.83147029	     -3.58686540	     -5.30656140	     12.09799948	      1.43715240	      5.98587913	      1.72833289	     13.07062620
      0.18000000	    -12.27220798	      3.92653345	    -34.51605944	     -0.98672966	      0.88197646	     -0.39070832	     12.53177200	      2.41958809	      2.71703068	     -2.19326492	      7.22514609	     -1.54673775	     10.64211553	     -3.83152059	     -3.58530805	     -5.31180237	     12.09939581	      1.43653769	      5.99659075	      1.72383856	     13.06962815
      0.19000000	    -12.26862525	      3.92041122	    -34.51422407	     -0.98669123	      0.88198696	     -0.39074017	     12.52728181	      2.41958991	      2.71715788	     -2.19897054	      7.22627215	     -1.54711539	     10.63768852	     -3.83131848	     -3.58278974	     -5.31749274	     12.10125623	      1.43587477	      6.00603336	      1.71860319	     13.06878179
      0.20000000	    -12.24978126	      3.91202463	    -34.50174150	     -0.98667605	      0.88201284	     -0.39081092	     12.51916137	      2.40998380	      2.70386808	     -2.22297947	      7.24527175	     -1.55148994	     10.63314612	     -3.82227737	     -3.55383703	     -5.34450621	     12.12581389	      1.42873793	      5.99076788	      1.70225100	     13.06091469
      0.21000000	    -12.24743267	      3.90620479	    -34.49884829	     -0.98663862	      0.88202165	     -0.39085563	     12.51541889	      2.40974977	      2.70327939	     -2.22694552	      7.24605757	     -1.55176869	     10.62959107	     -3.82139975	     -3.55294365	     -5.34757150	     12.12607965	      1.42802474	      6.00047312	      1.69920528	     13.06017138
      0.22000000	    -12.24454929	      3.90027453	    -34.49449354	     -0.98660656	      0.88203220	     -0.39090048	     12.51167243	      2.40920056	      2.70231309	     -2.23191235	      7.24706027	     -1.55213018	     10.62674700	     -3.82088731	     -3.55011360	     -5.35187146	     12.12672752	      1.42716933	      6.00867671	      1.69406090	     13.05977365
      0.23000000	    -12.22843501	      3.89538454	    -34.47344119	     -0.98658606	      0.88205329	     -0.39099709	     12.50697217	      2.39534577	      2.67517666	     -2.25300916	      7.26412959	     -1.55666060	     10.63013404	     -3.80770502	     -3.50933319	     -5.38058769	     12.13855589	      1.41827899	      5.99718248	      1.67599262	     13.05514160
      0.24000000	    -12.22646546	      3.89019132	    -34.47260410	     -0.98653649	      0.88205837	     -0.39103871	     12.50335203	      2.39529926	      2.67399356	     -2.25696310	      7.26501875	     -1.55692967	     10.62595241	     -3.80610627	     -3.50807466	     -5.38384214	     12.13887030	      1.41736955	      6.00848231	      1.67381454	     13.05350413
      0.25000000	    -12.22426146	      3.88523275	    -34.47250771	     -0.98647743	      0.88206102	     -0.39107706	     12.49922924	      2.39434398	      2.67232356	     -2.26127420	      7.26628330	     -1.55724148	     10.62143953	     -3.80478567	     -3.50583248	     -5.38804870	     12.13985371	      1.41638034	      6.02007897	      1.67164961	     13.05353939
      0.26000000	    -12.22196314	      3.88058840	    -34.47503147	     -0.98640223	      0.88206001	     -0.39111068	     12.49421257	      2.39317110	      2.67022819	     -2.26574801	      7.26800159	     -1.55755974	     10.61559058	     -3.80268013	     -3.50319586	     -5.39315685	     12.14162682	      1.41533069	      6.03338882	      1.67071938	     13.05508345
      0.27000000	    -12.21955793	      3.87631947	    -34.48060755	     -0.98631269	      0.88205733	     -0.39113916	     12.48845604	      2.39151848	      2.66787677	     -2.27014019	      7.27033462	     -1.55785915	     10.60815800	     -3.80042296	     -3.50085126	     -5.39853109	     12.14444879	      1.41414256	      6.04848472	      1.67135815	     13.05821776
      0.28000000	    -12.21573245	      3.87245108	    -34.50230173	     -0.98621128	      0.88204609	     -0.39113465	     12.48102696	      2.39316993	      2.65493573	     -2.27428725	      7.29904459	     -1.55909178	     10.58641703	     -3.79942119	     -3.50780443	     -5.38809354	     12.18179805	      1.40081457	      6.06521778	      1.67188393	     13.10133542
      0.29000000	    -12.21302375	      3.86742916	    -34.50945400	     -0.98611166	      0.88204359	     -0.39116816	     12.47488674	      2.39060690	      2.65731628	     -2.28069994	      7.29943331	     -1.55907024	     10.57793361	     -3.79708711	     -3.50788094	     -5.39433728	     12.18253482	      1.39961267	      6.07983910	      1.67543118	     13.10159041
